<svg xmlns="http://www.w3.org/2000/svg" viewBox="0 0 1200 630" width="1200" height="630">
  <defs>
    <linearGradient id="bg" x1="0" y1="0" x2="1" y2="1">
      <stop offset="0%" stop-color="#13cebe"/>
      <stop offset="100%" stop-color="#0a9e91"/>
    </linearGradient>
  </defs>

  <!-- Background -->
  <rect width="1200" height="630" fill="url(#bg)"/>

  <!-- Icon (1024×1024 → 532×532, 여백 50px) -->
  <g transform="translate(50,50) scale(0.52)">
    <rect x="18" y="18" width="988" height="988" rx="210" fill="#FFFFFF" stroke="#10bcad" stroke-width="36"/>
    <rect x="266" y="300" width="492" height="576" rx="72" fill="#ccfbf1"/>
    <circle cx="512" cy="606" r="142" fill="#FFFFFF"/>
    <path d="M 370 606 Q 512 428 654 606" fill="none" stroke="#10bcad" stroke-width="32" stroke-linecap="round"/>
    <g stroke="#10bcad" stroke-width="18" stroke-linecap="round">
      <line x1="427" y1="549" x2="388" y2="510"/>
      <line x1="469" y1="525" x2="448" y2="472"/>
      <line x1="512" y1="517" x2="512" y2="458"/>
      <line x1="555" y1="525" x2="576" y2="472"/>
      <line x1="597" y1="549" x2="636" y2="510"/>
    </g>
    <circle cx="512" cy="606" r="50" fill="none" stroke="#10bcad" stroke-width="30"/>
    <rect x="476" y="208" width="72" height="86" rx="32" fill="#ccfbf1" stroke="#10bcad" stroke-width="28"/>
    <rect x="398" y="250" width="228" height="98" rx="46" fill="#ccfbf1" stroke="#10bcad" stroke-width="28"/>
  </g>

  <!-- Divider -->
  <rect x="614" y="60" width="2" height="510" fill="rgba(255,255,255,0.25)"/>

  <!-- Text -->
  <text x="652" y="210" font-family="'Apple SD Gothic Neo','Noto Sans KR','Malgun Gothic',sans-serif" font-size="84" font-weight="700" fill="#FFFFFF" letter-spacing="-1">마이오노트</text>
  <text x="655" y="285" font-family="'Apple SD Gothic Neo','Noto Sans KR','Malgun Gothic',sans-serif" font-size="40" fill="rgba(255,255,255,0.90)">내 아이 근시 관리 서비스</text>
  <text x="655" y="360" font-family="'Apple SD Gothic Neo','Noto Sans KR','Malgun Gothic',sans-serif" font-size="30" fill="rgba(255,255,255,0.72)">케어 기록  ·  안축장 변화 차트  ·  보호자 공유</text>
  <text x="655" y="460" font-family="monospace,sans-serif" font-size="26" fill="rgba(255,255,255,0.50)">halinacho.github.io/MyoNote</text>
</svg>
